<?xml version="1.0" encoding="UTF-8" standalone="no"?>
<!-- Created with Inkscape (http://www.inkscape.org/) -->

<svg
   xmlns:dc="http://purl.org/dc/elements/1.1/"
   xmlns:cc="http://creativecommons.org/ns#"
   xmlns:rdf="http://www.w3.org/1999/02/22-rdf-syntax-ns#"
   xmlns:svg="http://www.w3.org/2000/svg"
   xmlns="http://www.w3.org/2000/svg"
   xmlns:sodipodi="http://sodipodi.sourceforge.net/DTD/sodipodi-0.dtd"
   xmlns:inkscape="http://www.inkscape.org/namespaces/inkscape"
   width="744.09448819"
   height="1052.3622047"
   id="svg5906"
   version="1.1"
   inkscape:version="0.48.2 r9819"
   sodipodi:docname="radiowoz.svg"
   inkscape:export-filename="/home/mimooh/2011/radiowoz.png"
   inkscape:export-xdpi="42.146206"
   inkscape:export-ydpi="42.146206">
  <defs
     id="defs5908">
    <linearGradient
       id="linearGradient9626-3">
      <stop
         id="stop9628-9"
         offset="0"
         style="stop-color:#ff2d2d;stop-opacity:0.10852713;" />
      <stop
         id="stop9630-1"
         offset="1"
         style="stop-color:#ffd680;stop-opacity:0;" />
    </linearGradient>
    <linearGradient
       id="linearGradient3498-2">
      <stop
         style="stop-color:blue;stop-opacity:0.49230769;"
         offset="0"
         id="stop3500-7" />
      <stop
         style="stop-color:blue;stop-opacity:0;"
         offset="1"
         id="stop3502-7" />
    </linearGradient>
  </defs>
  <sodipodi:namedview
     id="base"
     pagecolor="#ffffff"
     bordercolor="#666666"
     borderopacity="1.0"
     inkscape:pageopacity="0.0"
     inkscape:pageshadow="2"
     inkscape:zoom="0.35"
     inkscape:cx="375"
     inkscape:cy="520"
     inkscape:document-units="px"
     inkscape:current-layer="layer1"
     showgrid="false"
     inkscape:window-width="1280"
     inkscape:window-height="974"
     inkscape:window-x="0"
     inkscape:window-y="30"
     inkscape:window-maximized="1" />
  <metadata
     id="metadata5911">
    <rdf:RDF>
      <cc:Work
         rdf:about="">
        <dc:format>image/svg+xml</dc:format>
        <dc:type
           rdf:resource="http://purl.org/dc/dcmitype/StillImage" />
        <dc:title></dc:title>
      </cc:Work>
    </rdf:RDF>
  </metadata>
  <g
     inkscape:label="Layer 1"
     inkscape:groupmode="layer"
     id="layer1">
    <g
       id="g9149"
       transform="matrix(1.5388428,0,0,1.5388428,657.78176,-141.54403)">
      <path
         inkscape:connector-curvature="0"
         style="color:#000000;fill:#000000;fill-opacity:1;fill-rule:nonzero;stroke:none;stroke-width:5.5999999;marker:none;visibility:visible;display:inline;overflow:visible;enable-background:accumulate"
         d="m -217.8125,153.03125 c -29.454,1.58066 -57.95989,17.85694 -72.8125,43.375 -3.79166,10.27686 2.52029,21.8828 -2.25,31.78125 -5.98635,0.81059 -11.90961,-1.6613 -18,-0.8125 -17.11969,-0.67643 -37.43164,2.54517 -47.28125,18.15625 -12.08881,18.72809 -11.02946,47.81911 8.375,61.1875 10.31073,7.47883 24.20867,8.33669 36.03125,8.28125 -3.17119,18.55107 -5.83821,40.11933 5.4375,56.53125 3.98723,5.94322 10.48628,9.66673 16.84375,12.78125 -53.98826,60.33405 -81.11059,146.11783 -64.125,226.21875 2.81439,12.60963 6.67079,24.94518 11.53125,36.90625 2.41406,0.27172 35.5699,-3.56624 30.65582,-1.7092 -18.17985,3.00757 -49.34419,12.04377 -49.43707,27.79904 -0.20139,9.76479 6.10461,22.22155 17.375,21.25 13.07056,-0.76741 26.17095,0.15446 39.28012,-0.0462 3.55894,-0.24678 6.45499,0.27619 8.40738,3.32743 6.70427,5.76875 16.10679,1.8302 23.9687,3.01347 46.03055,0.3479 92.06263,0.0803 138.0938,0.049 12.89806,-10.92401 9.81443,-26.71733 -3.125,-36.18359 -2.45233,-8.07769 -2.00784,-16.59741 -3.34375,-24.875 10.77854,-7.69025 9.2587,-22.56021 9.20682,-34.21747 1.99595,-22.26274 2.84976,-44.60343 1.51193,-66.93878 20.15869,4.08443 40.39753,-3.03025 60.65625,-1.78125 9.481805,-9.10674 5.784193,-23.59155 2.587027,-34.62274 -6.40478,-16.30947 -4.815905,-35.3495 -13.602057,-50.92526 -9.562408,-18.29631 -24.2957,-33.50126 -34.01622,-51.73325 -9.58015,-13.10579 -23.08424,-22.77691 -37.71875,-29.46875 8.11661,-9.36946 13.921,-20.65652 17.4375,-32.5 20.78862,-3.80381 35.24838,-30.01255 23.5,-48.8125 -4.4404,-7.93309 -12.29105,-13.45049 -20.71875,-16.3125 4.21163,-38.43422 -7.30603,-81.01188 -38.83765,-105.21636 -13.1108,-9.56967 -29.29894,-15.12717 -45.6311,-14.50239 l 0,5e-5 z"
         id="path8849"
         sodipodi:nodetypes="ccccccccccccccccccccccccccccccccc" />
      <path
         inkscape:connector-curvature="0"
         sodipodi:nodetypes="ccscssccc"
         id="path8081"
         d="m -278.01259,198.47744 c 0,0 -0.98867,30.54027 -2.29493,41.57396 -23.10529,5.52068 -60.03883,-10.42562 -69.71882,18.59052 -17.86885,53.56328 53.37368,42.84579 64.89742,29.43529 -3.12695,7.44734 -20.96282,55.59288 -16.33548,70.15308 5.08497,16.00105 46.90395,31.29763 60.45386,26.12767 13.55023,-5.17 69.09595,-16.51344 69.09595,-16.51344 l 19.50034,-60.28006 c 32.6827,-124.15031 -60.93628,-183.1491 -125.59834,-109.08702 z"
         style="color:#000000;fill:#ffd680;fill-opacity:1;fill-rule:nonzero;stroke:none;stroke-width:5.5999999;marker:none;visibility:visible;display:inline;overflow:visible" />
      <path
         inkscape:connector-curvature="0"
         sodipodi:nodetypes="ccssc"
         id="path8905"
         d="m -276.53324,193.94512 c -26.0031,9.06398 -29.87163,57.96553 2.87372,49.16788 27.64141,17.36305 44.91154,-17.38124 26.43904,-43.99409 -6.85719,-9.87925 -14.06501,-6.34827 -22.80038,1.49239 -3.52511,3.1645 -2.13178,-5.03095 -6.51238,-6.66618 z"
         style="color:#000000;fill:#000000;fill-opacity:1;fill-rule:nonzero;stroke:none;stroke-width:6;marker:none;visibility:visible;display:inline;overflow:visible;enable-background:accumulate" />
      <path
         inkscape:connector-curvature="0"
         sodipodi:nodetypes="ccscc"
         id="path8307"
         d="m -245.77038,222.40938 c -0.59002,15.67754 -16.12304,30.01677 -28.80019,17.65244 -10.10414,6.66353 -19.0649,-9.8398 -17.43851,-17.65244 3.81955,-18.34035 18.97225,-35.11994 18.97225,-35.11994 0,0 24.11106,13.31139 27.26645,35.11994 z"
         style="color:#000000;fill:#ffffff;fill-opacity:1;fill-rule:nonzero;stroke:none;stroke-width:6;marker:none;visibility:visible;display:inline;overflow:visible;enable-background:accumulate" />
      <path
         inkscape:connector-curvature="0"
         style="color:#000000;fill:#729fcf;fill-opacity:1;fill-rule:nonzero;stroke:none;stroke-width:0.77707309;marker:none;visibility:visible;display:inline;overflow:visible;enable-background:accumulate"
         d="m 139.59375,691.34375 -7.1875,1.125 0.9375,4.625 c -1.68743,-0.24607 -3.49332,-0.40625 -5.40625,-0.40625 -8.42562,0 -15.28125,2.61545 -15.28125,5.84375 0,0.48173 0.18212,0.95845 0.46875,1.40625 0,0 7.40721,0.36183 9.75,0.0937 1.34134,-9.49394 19.47501,-5.86608 19.09375,-6.8125 l -2.375,-5.875 z m 11.78125,1.3125 -7.15625,1.125 0.90625,4.625 c -1.68743,-0.24607 -3.49332,-0.375 -5.40625,-0.375 -8.42562,0 -15.25,2.5842 -15.25,5.8125 0,0.48173 0.18212,0.95845 0.46875,1.40625 l 29.59375,0 c 0.28687,-0.4478 0.4375,-0.92452 0.4375,-1.40625 0,-1.04279 -0.68813,-1.99661 -1.9375,-2.84375 l -1.65625,-8.34375 z"
         transform="matrix(4.9281272,0,0,4.9281272,-904.648,-2785.5701)"
         id="path8893" />
      <path
         inkscape:connector-curvature="0"
         sodipodi:nodetypes="cccccccccccccccccc"
         id="path8332"
         d="m -245.97578,382.35174 c 34.99275,-8.76358 65.77867,-28.59046 96.75559,-46.35406 -4.49274,17.96458 -18.18749,31.48105 -32.5681,42.18924 24.31213,-0.61628 46.01719,14.40057 58.84719,34.23467 10.88986,15.76839 20.17995,32.90538 32.261526,47.66655 4.451451,21.44903 8.903263,42.89846 13.354759,64.34753 -17.001003,1.02405 -34.001695,2.04851 -51.002735,3.07261 -2.78733,-18.09325 -3.93857,-30.86209 -6.9224,-48.92469 5.20268,-2.03028 8.97642,-9.41734 14.17909,-11.44762 -5.39331,0.76531 -10.78695,1.53062 -16.18027,2.29593 12.31396,-19.5374 -5.67703,1.19796 -9.36235,-6.22335 -7.42359,-6.42392 -14.84688,-12.84824 -22.27048,-19.27252 28.83273,55.42116 27.74879,120.00648 21.58808,180.53089 1.77668,8.86476 -8.92222,4.36236 -14.18718,5.68167 -57.40061,2.47687 -111.77146,13.28434 -173.34712,4.27977 -26.44906,-71.48824 -9.978,-154.04672 32.97899,-215.63444 9.59735,-13.98865 20.45079,-27.10389 32.26495,-39.27424 7.86955,0.94462 15.74294,1.88577 23.61046,2.83206 z"
         style="fill:#ffffff;fill-opacity:1;stroke:none" />
      <g
         transform="matrix(3.156846,0,0,3.156846,5141.2223,-2936.4545)"
         id="g9016">
        <path
           inkscape:connector-curvature="0"
           style="color:#000000;fill:#a40000;fill-opacity:1;fill-rule:nonzero;stroke:none;stroke-width:4;marker:none;visibility:visible;display:inline;overflow:visible;enable-background:accumulate"
           d="m -1634.6875,1102.5312 c -18.1674,2.4525 -36.3289,4.9505 -54.5,7.375 1.6398,12.0396 3.2865,24.0789 4.875,36.125 4.6914,3.5685 9.1246,8.1379 15.4144,5.3504 16.1959,-2.1839 32.386,-4.413 48.5856,-6.5691 -1.6398,-12.0395 -3.2865,-24.0789 -4.875,-36.125 -3.197,-1.7678 -6.0591,-5.4509 -9.5,-6.1563 z"
           id="path9008" />
        <path
           inkscape:connector-curvature="0"
           style="color:#000000;fill:#ef2929;fill-opacity:1;fill-rule:nonzero;stroke:none;stroke-width:4;marker:none;visibility:visible;display:inline;overflow:visible;enable-background:accumulate"
           d="m -1634.4062,1104.5 -52.5313,7.125 4.5,33.2812 7.3125,5.3126 52.5625,-7.125 -4.5,-33.2813 -7.3437,-5.3125 z"
           id="rect8991"
           sodipodi:nodetypes="ccccccc" />
        <path
           inkscape:connector-curvature="0"
           style="opacity:0.7;fill:#a40000;stroke:none"
           d="m -1687.4426,1111.1199 4.1212,34.1651 8.4489,5.6914 -4.63,-33.7134 52.4087,-7.4502 -7.3124,-6.0701 -53.0364,7.3772 z"
           id="path8996"
           sodipodi:nodetypes="ccccccc" />
        <g
           id="g9012"
           transform="translate(3.2217197,0.86221913)">
          <path
             d="m -1642.0029,1129.3864 c 0,6.4854 -5.2576,11.743 -11.7431,11.743 -6.4855,0 -11.743,-5.2576 -11.743,-11.743 0,-6.4855 5.2575,-11.7431 11.743,-11.7431 6.4855,0 11.7431,5.2576 11.7431,11.7431 z"
             sodipodi:ry="11.743023"
             sodipodi:rx="11.743023"
             sodipodi:cy="1129.3864"
             sodipodi:cx="-1653.746"
             id="path9005"
             style="color:#000000;fill:#ffffff;fill-opacity:1;fill-rule:nonzero;stroke:none;stroke-width:4;marker:none;visibility:visible;display:inline;overflow:visible;enable-background:accumulate"
             sodipodi:type="arc" />
          <path
             inkscape:connector-curvature="0"
             id="rect9001"
             d="m -1657.5951,1122.7888 0.5558,3.9928 -3.9928,0.5557 0.8186,5.8807 3.9928,-0.5557 0.5601,4.0238 5.8807,-0.8186 -0.5601,-4.0238 3.9928,-0.5557 -0.8186,-5.8807 -3.9928,0.5557 -0.5558,-3.9928 -5.8807,0.8186 z"
             style="color:#000000;fill:#ef2929;fill-opacity:1;fill-rule:nonzero;stroke:none;stroke-width:4;marker:none;visibility:visible;display:inline;overflow:visible;enable-background:accumulate" />
        </g>
      </g>
      <path
         inkscape:connector-curvature="0"
         id="path9025"
         d="m -90,517.1875 c -13.52143,1.30671 -28.43142,-0.91845 -40.40625,6.96875 -12.88498,7.7992 -12.22478,26.65317 -4.09375,37.53125 4.79617,7.83222 15.7317,21.13654 23.67311,8.50779 1.50725,7.04398 12.522919,5.99994 17.100512,-0.2519 8.386595,6.29463 16.430826,0.3229 15.734556,-5.80139 20.765818,-0.38577 19.516338,-27.36478 9.460572,-37.9545 -5.329874,-6.02081 -13.374446,-9.52788 -21.46875,-9 z"
         style="color:#000000;fill:#000000;fill-opacity:1;fill-rule:nonzero;stroke:none;stroke-width:5.5999999;marker:none;visibility:visible;display:inline;overflow:visible;enable-background:accumulate"
         sodipodi:nodetypes="cccccccc" />
      <path
         inkscape:connector-curvature="0"
         style="color:#000000;fill:#ffd680;fill-opacity:1;fill-rule:nonzero;stroke:none;stroke-width:5.5999999;marker:none;visibility:visible;display:inline;overflow:visible;enable-background:accumulate"
         d="m 164.6875,672.09375 c -0.57112,0.0165 -1.20693,0.0599 -1.875,0.125 -1.3059,0.12722 -2.85078,0.0609 -3.8125,0.375 -1.51154,0.49361 -1.97512,1.59253 -2.09375,3.1875 -0.15836,2.12905 1.54796,4.9735 3.20982,4.27679 0.66261,-0.68868 0.61683,-0.75352 0.85714,-1.75893 0.25129,0.59172 -0.13746,1.98828 2.02679,2.20089 1.15991,-0.92663 0.62502,-1.25595 0.78125,-2.30804 0.86831,2.53687 1.4029,2.16446 2.34375,1.84375 0.77137,-0.26294 0.59821,-2.37053 0.59821,-2.37053 1.73482,2.70439 1.88961,0.69456 2.40179,-1.88393 0,-1.93399 -0.50407,-3.28536 -2.90625,-3.625 -0.42413,-0.06 -0.96013,-0.079 -1.53125,-0.0625 z"
         transform="matrix(4.9281272,0,0,4.9281272,-904.64798,-2785.5701)"
         id="path8503"
         sodipodi:nodetypes="csssccccaccsc" />
      <path
         inkscape:connector-curvature="0"
         sodipodi:nodetypes="ccccccc"
         id="path8828"
         d="m -325.41074,351.37757 c 1.42808,10.55646 -8.03921,35.84194 -2.36544,36.41489 10.22677,-14.50342 29.90443,-20.51441 38.01079,-31.60077 12.23606,18.57396 50.43964,16.20204 73.46406,42.01965 -22.064,-44.18373 -11.31119,-85.60112 -36.68073,-101.23705 -7.98004,-3.42085 -28.32027,-2.35754 -37.16093,-1.35578 -31.20268,5.88644 -35.06745,28.47519 -35.26775,55.75906 z"
         style="color:#000000;fill:#000000;fill-opacity:1;fill-rule:nonzero;stroke:none;stroke-width:8.59999943;marker:none;visibility:visible;display:inline;overflow:visible" />
      <path
         inkscape:connector-curvature="0"
         sodipodi:nodetypes="ccccccccccccccccc"
         id="path8195"
         d="m -286.91246,297.07204 c -41.3214,2.08535 -28.0695,57.35783 -33.2288,74.52231 5.88196,-3.79284 9.63382,-11.84581 12.04402,-22.58257 1.74121,4.45768 0.30645,8.11836 -1.50552,10.7536 5.54889,-2.26046 10.75946,-5.01547 8.92569,-18.06604 1.54267,2.65487 1.83174,5.21333 1.61285,7.52754 6.60702,-1.25121 6.361,-9.54338 7.20475,-19.03372 2.50688,10.44837 3.79559,17.55951 14.72159,22.26632 -2.6638,-3.95215 -3.84306,-10.28043 -2.35478,-17.64247 3.84722,11.65657 2.88265,23.59534 16.99072,24.94837 -2.68755,-3.26149 -4.95044,-8.00617 -3.44117,-14.19477 3.70167,8.5038 7.23779,20.98868 13.87234,19.03409 -1.06986,-2.29869 -1.55986,-5.07916 -0.75294,-8.38817 l 5.16174,10.5389 c 8.36926,4.36268 16.94184,10.30864 24.94836,21.07705 -29.26356,-45.59426 -7.54748,-80.63314 -55.16584,-90.43801 -3.26149,-0.36016 -6.27836,-0.46179 -9.03301,-0.3236 z"
         style="color:#000000;fill:#ffffff;fill-opacity:1;fill-rule:nonzero;stroke:none;stroke-width:8.59999943;marker:none;visibility:visible;display:inline;overflow:visible" />
      <path
         inkscape:connector-curvature="0"
         id="path8830"
         d="m -140.25,168.375 c -2.74457,0.49051 -1.22056,5.88143 -4.4375,4.03125 -2.55839,-0.75455 -5.59682,1.02846 -5.53125,3.875 -3.38649,-5.38024 -12.02702,-10.27607 -17.125,-4.21875 -5.68428,6.15114 -1.29702,15.08934 -3.22617,22.52612 -3.11941,32.4826 -20.03117,64.47664 -11.93008,97.59888 2.00619,6.99772 4.70367,13.59386 6.28125,20.71875 0.64489,4.38561 5.99503,8.0274 9.5625,4.1875 7.49295,-6.58617 10.96617,-19.17786 21.75,-21.15625 10.0177,0.076 17.49498,-8.45502 24.34375,-14.625 4.26757,-5.12663 10.94065,-10.33395 10.96875,-17.5 -1.11151,-4.53225 -7.13104,-0.72088 -9.15625,-3.28125 0.58031,-7.42909 9.10748,-12.90044 7.5,-20.59375 -1.75075,-2.67303 2.86124,-5.52992 3.53125,-8.46875 2.6429,-3.34576 2.96837,-10.59526 -2.84375,-10.21875 -2.19828,-0.59306 -6.51746,1.96512 -7.6875,-0.3125 1.3855,-5.85941 6.3382,-10.56748 6.5,-16.96875 1.1438,-4.7001 -3.53885,-9.57946 -8.15625,-7.0625 -3.53656,1.21737 -6.77008,5.07539 -8.96875,6.6875 -1.77292,-10.1795 2.11923,-22.70442 -5.71875,-30.96875 -2.74347,-0.81121 -2.51723,-4.85855 -5.65625,-4.25 z"
         style="fill:#000000;fill-opacity:1;stroke:none" />
      <path
         inkscape:connector-curvature="0"
         id="path8496"
         d="m -267.55596,226.09823 c -2.22159,-0.22025 -4.37576,2.53509 -4.73158,6.12938 -0.3561,3.5943 1.21952,6.6624 3.44116,6.88233 2.22123,0.21979 4.26803,-2.42776 4.62385,-6.02206 0.0894,-0.89845 0.0181,-1.78214 -0.10786,-2.58085 0,1.27255 -0.98556,2.36579 -2.25806,2.36579 -1.27256,0 -2.25811,-1.09324 -2.25811,-2.36579 0,-1.27255 0.98555,-2.25806 2.25811,-2.25806 0.82104,0 1.5275,0.4283 1.93563,1.07501 -0.56126,-1.74983 -1.54059,-3.09085 -2.90332,-3.22575 z"
         style="color:#000000;fill:#000000;fill-opacity:1;fill-rule:nonzero;stroke:none;stroke-width:5.5999999;marker:none;visibility:visible;display:inline;overflow:visible;enable-background:accumulate" />
      <path
         inkscape:connector-curvature="0"
         style="color:#000000;fill:#000000;fill-opacity:1;fill-rule:nonzero;stroke:none;stroke-width:5.5999999;marker:none;visibility:visible;display:inline;overflow:visible;enable-background:accumulate"
         d="m -277.38768,223.94749 c -2.2216,-0.22024 -4.37577,2.53513 -4.73159,6.12938 -0.3561,3.5943 1.21952,6.66245 3.44116,6.88233 2.22124,0.22025 4.26803,-2.42772 4.62386,-6.02201 0.0894,-0.8985 0.0361,-1.78219 -0.10651,-2.5809 0,1.27256 -0.98556,2.3658 -2.25807,2.3658 -1.27255,0 -2.2581,-1.09324 -2.2581,-2.3658 0,-1.2725 0.98555,-2.25806 2.2581,-2.25806 0.82105,0 1.52751,0.42831 1.93564,1.07501 -0.56127,-1.74983 -1.54059,-3.09085 -2.90332,-3.22575 z"
         id="path8501" />
      <path
         inkscape:connector-curvature="0"
         sodipodi:nodetypes="cccccccscccccccccccccccc"
         id="path8797"
         d="m -160.88018,177.81435 c -0.48486,0.0587 -0.34797,1.22891 0.6449,3.76359 -9.36994,81.29523 -25.71268,79.14174 -8.06507,124.09697 7.48006,-22.12317 14.86548,-24.24155 36.99243,-22.53681 l 6.55986,-11.87473 -12.79697,1.18274 10.53855,-16.56056 c 0,0 -7.6132,2.48864 -12.15176,4.94664 -4.53851,2.45805 9.89333,-10.43117 9.89333,-10.43117 l 8.28044,-14.19476 -9.7856,7.42016 3.011,-14.19476 -13.65723,4.30148 c 0,0 12.20402,-14.6084 16.56055,-20.64693 -4.66966,4.05261 -17.65831,7.15587 -23.98041,9.24807 11.83245,-9.96694 11.20339,-28.23946 10.21576,-36.13212 0.87512,13.76289 -17.05466,26.50001 -16.34545,24.19547 8.60457,-12.98075 -3.81382,-32.83692 -5.91433,-32.58328 z m 22.25978,8.38781 c -0.43733,-3.49482 -0.97761,-5.11801 -0.53784,-2.79595 0.2374,0.92192 0.47935,1.87855 0.53784,2.79595 z m 15.27013,24.62562 c -0.18594,0.38318 -0.67788,1.18513 -1.29042,2.04333 0.69165,-0.65072 1.10773,-1.34685 1.29042,-2.04333 z"
         style="color:#000000;fill:#ffffff;fill-opacity:1;fill-rule:nonzero;stroke:none;stroke-width:8.59999943;marker:none;visibility:visible;display:inline;overflow:visible;enable-background:accumulate" />
      <path
         transform="matrix(3.4411544,0,0,3.4411544,5607.9537,-3235.7801)"
         d="m -1665,1028.9694 c 0,3.2545 -2.6383,5.8928 -5.8928,5.8928 -3.2546,0 -5.8929,-2.6383 -5.8929,-5.8928 0,-3.2546 2.6383,-5.8929 5.8929,-5.8929 3.2545,0 5.8928,2.6383 5.8928,5.8929 z"
         sodipodi:ry="5.8928571"
         sodipodi:rx="5.8928571"
         sodipodi:cy="1028.9694"
         sodipodi:cx="-1670.8928"
         id="path8309"
         style="color:#000000;fill:#ffd680;fill-opacity:1;fill-rule:nonzero;stroke:none;stroke-width:5.5999999;marker:none;visibility:visible;display:inline;overflow:visible;enable-background:accumulate"
         sodipodi:type="arc" />
      <path
         inkscape:connector-curvature="0"
         id="path8841"
         d="m -143.24425,298.03968 c -4.66692,0 -8.38817,4.33312 -8.38817,9.67828 0,4.67684 2.81694,8.56053 6.66758,9.46317 -2.12975,-1.36065 -3.60837,-3.86342 -3.87132,-6.77464 0.47764,0.27982 1.01896,0.53753 1.6129,0.53753 1.78183,0 3.22606,-1.44424 3.22606,-3.22606 0,-1.78187 -1.44423,-3.22611 -3.22606,-3.22611 -0.15029,0 -0.28524,0.0876 -0.43011,0.10742 1.37094,-2.3472 3.70577,-3.87132 6.34448,-3.87132 2.37541,0 4.51238,1.27977 5.91464,3.22642 -1.28252,-3.47415 -4.35067,-5.91464 -7.84996,-5.91464 z"
         style="color:#000000;fill:#000000;fill-opacity:1;fill-rule:nonzero;stroke:none;stroke-width:0.77707309;marker:none;visibility:visible;display:inline;overflow:visible;enable-background:accumulate" />
      <g
         transform="matrix(1.8205053,-3.5006836,2.9201549,2.1824229,-103.40844,-7974.8382)"
         id="g8981">
        <path
           inkscape:connector-curvature="0"
           style="color:#000000;fill:#000000;fill-opacity:1;fill-rule:nonzero;stroke:none;stroke-width:1px;marker:none;visibility:visible;display:inline;overflow:visible;enable-background:accumulate"
           d="m -1713.8245,998.52501 c -5.3757,-1.44735 -0.3126,3.69539 0.9746,4.43379 4.759,3.5066 5.699,2.8314 11.1559,1.7451 -7.2335,-2.3232 -6.9885,-6.4742 -13.1717,-10.28047 0.3761,1.65889 0.6652,2.44273 1.0412,4.10158 z"
           id="path8936"
           sodipodi:nodetypes="ccccc" />
        <path
           inkscape:connector-curvature="0"
           style="color:#000000;fill:#ffffff;fill-opacity:1;fill-rule:nonzero;stroke:none;stroke-width:1px;marker:none;visibility:visible;display:inline;overflow:visible;enable-background:accumulate"
           d="m -1705.8474,1003.9695 c -2.5547,-1.297 -5.1439,-4.06795 -7.7392,-7.10182 l 1.7877,3.50282 -2.28,-0.75722 3.0414,2.27582 -1.9602,-0.015 3.8521,0.9929 -1.3742,0.4736 2.0914,0.9674 2.581,-0.3387 z"
           id="path8909"
           sodipodi:nodetypes="cccccccccc" />
      </g>
      <g
         transform="matrix(2.8367765,2.5130512,-1.9728129,3.2564676,6550.4291,1198.2474)"
         id="g8985">
        <path
           inkscape:connector-curvature="0"
           sodipodi:nodetypes="ccccc"
           id="path8946"
           d="m -1694.4298,1004.4082 c 5.3608,1.502 -1.619,3.3366 -3.1028,3.3138 -5.8824,0.5834 -6.3456,-0.4773 -10.4819,-4.1988 7.4053,1.6981 9.3151,-1.9956 16.5751,-2.109 -1.1708,1.2339 -1.8197,1.7601 -2.9904,2.994 z"
           style="color:#000000;fill:#000000;fill-opacity:1;fill-rule:nonzero;stroke:none;stroke-width:1px;marker:none;visibility:visible;display:inline;overflow:visible;enable-background:accumulate" />
        <path
           inkscape:connector-curvature="0"
           sodipodi:nodetypes="cccccccccc"
           id="path8948"
           d="m -1704.0688,1005.0136 c 2.8588,0.1901 6.5002,-0.8693 10.2811,-2.1516 l -3.3261,2.098 2.3468,0.5138 -3.7772,0.4027 1.6927,0.9888 -3.8188,-1.1143 0.9394,1.1091 -2.2921,-0.2367 -2.0458,-1.6097 z"
           style="color:#000000;fill:#ffffff;fill-opacity:1;fill-rule:nonzero;stroke:none;stroke-width:1px;marker:none;visibility:visible;display:inline;overflow:visible;enable-background:accumulate" />
      </g>
      <path
         inkscape:connector-curvature="0"
         id="path8952"
         d="m -277.87945,396.43538 -7.95801,11.29109 8.49554,6.02205 c -2.65243,4.42085 -7.32449,11.28734 -15.80797,21.18442 -9.39575,10.96247 -12.18994,25.38267 -13.11908,36.88506 -0.92977,11.50239 0.21483,20.64693 0.21483,20.64693 l 13.65728,-1.72058 c 0,0 -1.02545,-7.84513 -0.21528,-17.85098 0.80868,-10.00585 3.64692,-21.63971 9.89333,-28.92741 11.50754,-13.42494 17.26182,-23.01269 19.67893,-27.52922 l 28.71227,-6.34448 -2.90364,-13.44218 -30.86269,6.77495 -9.7856,-6.98965 z"
         style="font-size:medium;font-style:normal;font-variant:normal;font-weight:normal;font-stretch:normal;text-indent:0;text-align:start;text-decoration:none;line-height:normal;letter-spacing:normal;word-spacing:normal;text-transform:none;direction:ltr;block-progression:tb;writing-mode:lr-tb;text-anchor:start;color:#000000;fill:#000000;fill-opacity:1;stroke:none;stroke-width:4;marker:none;visibility:visible;display:inline;overflow:visible;enable-background:accumulate;font-family:aakar;-inkscape-font-specification:aakar" />
      <path
         transform="matrix(3.4411544,0,0,3.4411544,5611.8771,-3255.7601)"
         d="m -1710.6933,1094.7886 c 0,4.3236 -3.505,7.8287 -7.8287,7.8287 -4.3236,0 -7.8287,-3.5051 -7.8287,-7.8287 0,-4.3237 3.5051,-7.8287 7.8287,-7.8287 4.3237,0 7.8287,3.505 7.8287,7.8287 z"
         sodipodi:ry="7.8286819"
         sodipodi:rx="7.8286819"
         sodipodi:cy="1094.7886"
         sodipodi:cx="-1718.522"
         id="path8950"
         style="color:#000000;fill:#000000;fill-opacity:1;fill-rule:nonzero;stroke:none;stroke-width:0.77707309;marker:none;visibility:visible;display:inline;overflow:visible;enable-background:accumulate"
         sodipodi:type="arc" />
      <path
         transform="matrix(3.4411544,0,0,3.4411544,5613.1503,-3264.6176)"
         d="m -1665.9309,1051.6046 c 0,1.3947 -1.1307,2.5254 -2.5254,2.5254 -1.3947,0 -2.5254,-1.1307 -2.5254,-2.5254 0,-1.3947 1.1307,-2.5254 2.5254,-2.5254 1.3947,0 2.5254,1.1307 2.5254,2.5254 z"
         sodipodi:ry="2.5253813"
         sodipodi:rx="2.5253813"
         sodipodi:cy="1051.6046"
         sodipodi:cx="-1668.4563"
         id="path8956"
         style="color:#000000;fill:#000000;fill-opacity:1;fill-rule:nonzero;stroke:none;stroke-width:0.77707309;marker:none;visibility:visible;display:inline;overflow:visible;enable-background:accumulate"
         sodipodi:type="arc" />
      <path
         inkscape:connector-curvature="0"
         sodipodi:nodetypes="cc"
         id="path8970"
         d="m -246.4744,405.48009 c 0,0 94.37082,1.18391 117.48811,-47.81229"
         style="fill:none;stroke:#000000;stroke-width:3.44115448px;stroke-linecap:butt;stroke-linejoin:miter;stroke-opacity:1" />
      <path
         inkscape:connector-curvature="0"
         style="fill:none;stroke:#000000;stroke-width:3.44115448px;stroke-linecap:butt;stroke-linejoin:miter;stroke-opacity:1"
         d="m -253.82678,407.93814 c 0,0 -35.8954,6.08461 -47.33758,-44.14073"
         id="path8973"
         sodipodi:nodetypes="cc" />
      <path
         sodipodi:type="arc"
         style="color:#000000;fill:#ffffff;fill-opacity:1;fill-rule:nonzero;stroke:none;stroke-width:0.77707309;marker:none;visibility:visible;display:inline;overflow:visible;enable-background:accumulate"
         id="path8975"
         sodipodi:cx="-1718.522"
         sodipodi:cy="1094.7886"
         sodipodi:rx="7.8286819"
         sodipodi:ry="7.8286819"
         d="m -1710.6933,1094.7886 c 0,4.3236 -3.505,7.8287 -7.8287,7.8287 -4.3236,0 -7.8287,-3.5051 -7.8287,-7.8287 0,-4.3237 3.5051,-7.8287 7.8287,-7.8287 4.3237,0 7.8287,3.505 7.8287,7.8287 z"
         transform="matrix(2.5531145,0,0,2.5531145,4081.1987,-2285.934)" />
    </g>
  </g>
</svg>
